<svg width="539" height="125" viewBox="0 0 539 125" fill="none" xmlns="http://www.w3.org/2000/svg">
<path d="M0 80.6591V0.503906H22.1868L49.159 48.5753V23.7783L68.083 23.887V80.6591H49.159L22.8393 33.6753H18.924V80.6591H0Z" fill="white"/>
<path d="M93.1655 80.6591L81.0932 68.5869V35.9593L93.1655 23.887H128.621L140.693 35.9593V68.5869L128.621 80.6591H93.1655ZM105.238 69.3482H116.549L120.355 65.4329V39.0045L116.549 35.1979H105.238L101.431 39.0045V65.4329L105.238 69.3482Z" fill="white"/>
<path d="M153.248 80.6591V23.7783H173.586V32.6965L183.265 23.887H194.359V42.0497H178.045L173.586 46.0738V80.6591H153.248Z" fill="white"/>
<path d="M211.802 80.6591L199.729 68.5869V35.9593L211.802 23.7783H232.248L240.405 30.7388V0.503906H260.743V80.6591H240.405V73.8073L232.14 80.6591H211.802ZM222.134 69.0219H230.726L240.405 60.6475V43.7899L230.834 35.4155H222.134L219.524 38.352V66.303L222.134 69.0219Z" fill="white"/>
<path d="M275.402 80.6591V0.503906H329.02L341.092 12.5761V43.4636L329.02 55.5358H295.74V80.6591H275.402ZM295.74 40.0921H317.6L321.407 36.2855V19.7542L317.6 15.9477H295.74V40.0921Z" fill="white"/>
<path d="M349.842 17.579V2.35281H370.18V17.579H349.842ZM349.842 80.6591V23.7783H370.18V80.6591H349.842Z" fill="white"/>
<path d="M377.291 80.6591L392.626 51.838L377.291 23.887H400.348L408.505 44.4424H412.42L420.577 23.887H443.634L428.408 51.7293L443.634 80.6591H420.359L412.42 59.7774H408.505L400.565 80.6591H377.291Z" fill="white"/>
<path d="M461.182 80.6591L449.11 68.5869V35.9593L461.182 23.887H493.157L505.229 35.9593V57.4935H469.448V62.4964L473.363 66.303H504.359V80.6591H461.182ZM469.448 45.7475H486.74V39.0045L482.825 35.1979H473.363L469.448 39.0045V45.7475Z" fill="white"/>
<path d="M518.291 80.6591V0.503906H538.629V80.6591H518.291Z" fill="white"/>
<rect x="49" width="19" height="19" fill="#FBB03B"/>
<path d="M0 124.456V90.6592H22.6076L27.6977 95.7493V108.773L22.6076 113.863H8.57529V124.456H0ZM8.57529 107.351H17.7926L19.3976 105.746V98.7759L17.7926 97.1709H8.57529V107.351Z" fill="white"/>
<path d="M31.3871 124.456V100.473H39.9623V104.233L44.0436 100.518H48.7211V108.177H41.8425L39.9623 109.873V124.456H31.3871Z" fill="white"/>
</svg>
