<svg width="539" height="125" viewBox="0 0 539 125" fill="none" xmlns="http://www.w3.org/2000/svg">
<path d="M0 80.6591V0.503906H22.1868L49.159 48.5753V23.7783L68.083 23.887V80.6591H49.159L22.8393 33.6753H18.924V80.6591H0Z" fill="white"/>
<path d="M93.1655 80.6591L81.0932 68.5869V35.9593L93.1655 23.887H128.621L140.693 35.9593V68.5869L128.621 80.6591H93.1655ZM105.238 69.3482H116.549L120.355 65.4329V39.0045L116.549 35.1979H105.238L101.431 39.0045V65.4329L105.238 69.3482Z" fill="white"/>
<path d="M153.248 80.6591V23.7783H173.586V32.6965L183.265 23.887H194.359V42.0497H178.045L173.586 46.0738V80.6591H153.248Z" fill="white"/>
<path d="M211.802 80.6591L199.729 68.5869V35.9593L211.802 23.7783H232.248L240.405 30.7388V0.503906H260.743V80.6591H240.405V73.8073L232.14 80.6591H211.802ZM222.134 69.0219H230.726L240.405 60.6475V43.7899L230.834 35.4155H222.134L219.524 38.352V66.303L222.134 69.0219Z" fill="white"/>
<path d="M275.402 80.6591V0.503906H329.02L341.092 12.5761V43.4636L329.02 55.5358H295.74V80.6591H275.402ZM295.74 40.0921H317.6L321.407 36.2855V19.7542L317.6 15.9477H295.74V40.0921Z" fill="white"/>
<path d="M349.842 17.579V2.35281H370.18V17.579H349.842ZM349.842 80.6591V23.7783H370.18V80.6591H349.842Z" fill="white"/>
<path d="M377.291 80.6591L392.626 51.838L377.291 23.887H400.348L408.505 44.4424H412.42L420.577 23.887H443.634L428.408 51.7293L443.634 80.6591H420.359L412.42 59.7774H408.505L400.565 80.6591H377.291Z" fill="white"/>
<path d="M461.182 80.6591L449.11 68.5869V35.9593L461.182 23.887H493.157L505.229 35.9593V57.4935H469.448V62.4964L473.363 66.303H504.359V80.6591H461.182ZM469.448 45.7475H486.74V39.0045L482.825 35.1979H473.363L469.448 39.0045V45.7475Z" fill="white"/>
<path d="M518.291 80.6591V0.503906H538.629V80.6591H518.291Z" fill="white"/>
<rect x="49" width="19" height="19" fill="#FBB03B"/>
<path d="M0 124.456V90.6592H22.6076L27.6977 95.7493V108.773L22.6076 113.863H8.57529V124.456H0ZM8.57529 107.351H17.7926L19.3976 105.746V98.7759L17.7926 97.1709H8.57529V107.351Z" fill="white"/>
<path d="M31.3871 124.456V100.473H39.9623V104.233L44.0436 100.518H48.7211V108.177H41.8425L39.9623 109.873V124.456H31.3871Z" fill="white"/>
<path d="M56.0758 124.456L50.9856 119.366V105.609L56.0758 100.518H71.0252L76.1153 105.609V119.366L71.0252 124.456H56.0758ZM61.1659 119.687H65.9351L67.54 118.036V106.893L65.9351 105.288H61.1659L59.5609 106.893V118.036L61.1659 119.687Z" fill="white"/>
<path d="M85.5873 124.456L80.4972 119.366V105.609L85.5873 100.473H94.2085L97.6478 103.407V90.6592H106.223V124.456H97.6478V121.567L94.1626 124.456H85.5873ZM89.9438 119.549H93.5665L97.6478 116.018V108.91L93.6123 105.379H89.9438L88.8432 106.617V118.403L89.9438 119.549Z" fill="white"/>
<path d="M116.806 124.502L111.716 119.412V100.518H120.291V118.036L121.896 119.641H123.776L128.408 115.697V100.518H136.983V124.456H128.408V121.246L124.418 124.502H116.806Z" fill="white"/>
<path d="M147.342 124.456L142.252 119.366V105.609L147.342 100.518H161.283L166.098 104.921V109.598H157.523V106.893L155.918 105.288H152.432L150.827 106.893V116.798L152.432 118.403H165.593V124.456H147.342Z" fill="white"/>
<path d="M175.881 124.456L171.066 120.008V105.838H169.324V100.518H171.387L174.001 93.6858H179.642V100.518H183.402V105.838H179.642V117.761L180.88 118.999H184.365V124.456H175.881Z" fill="white"/>
<path d="M188.484 97.8588V91.4388H197.059V97.8588H188.484ZM188.484 124.456V100.473H197.059V124.456H188.484Z" fill="white"/>
<path d="M207.44 124.456L202.35 119.366V105.609L207.44 100.518H222.39L227.48 105.609V119.366L222.39 124.456H207.44ZM212.53 119.687H217.299L218.904 118.036V106.893L217.299 105.288H212.53L210.925 106.893V118.036L212.53 119.687Z" fill="white"/>
<path d="M232.773 124.456V100.473H241.349V103.774L245.384 100.473H253.638L258.729 105.609V124.456H250.153V106.801L248.594 105.333H246.118L241.349 109.369V124.456H232.773Z" fill="white"/>
</svg>
